<?xml version="1.0" encoding="utf-8"?>
<!-- Generator: Adobe Illustrator 19.2.1, SVG Export Plug-In . SVG Version: 6.00 Build 0)  -->
<svg version="1.1" id="Слой_1" xmlns="http://www.w3.org/2000/svg" xmlns:xlink="http://www.w3.org/1999/xlink" x="0px" y="0px"
	 viewBox="0 0 78.4 97" style="enable-background:new 0 0 78.4 97;" xml:space="preserve">
<style type="text/css">
	.st0{fill:#CC0A3B;stroke:#FFFFFF;stroke-width:4;stroke-miterlimit:10;}
	.st1{fill:#FBCC01;}
</style>
<title>chelovechek</title>
<path class="st0" d="M39.9,12.8c9.1,0,16.4,7.3,16.4,16.3c0,9.1-7.3,16.4-16.3,16.4c-9.1,0-16.4-7.3-16.4-16.3v-0.1
	C23.6,20.1,30.8,12.9,39.9,12.8z M39.5,18.4c1.6,4,5.6,6.5,9.9,6.5h0.4c-1.6-4-5.6-6.5-9.9-6.5H39.5z M37.7,18.7
	c0.4-0.1,0.5-0.1,0.8-0.2C38.2,18.6,38,18.6,37.7,18.7z M50.6,30.6h-1.1c-6.8,0-12.9-4.2-15.3-10.5c-3.1,1.9-5,5.3-5,9
	c0,6,4.9,10.8,10.9,10.7C45.2,39.8,49.8,35.9,50.6,30.6z"/>
<path class="st1" d="M58.1,37.2c-2.4,6.3-8.2,10.8-14.9,11.6c-0.4-1.2-1.5-2-2.7-2c-1.7,0-3.1,1.4-3.1,3c0,1.7,1.4,3.1,3.1,3.1
	c1.2,0,2.2-0.7,2.7-1.7c7.2-0.7,13.6-5.3,16.6-11.9h3.4c1.4,0,2.4-1.1,2.4-2.4c0,0,0,0,0-0.1v-6.5c0-1.4-1.1-2.4-2.4-2.4l0,0h-2.6
	c0-11.2-9.2-20.6-20.7-20.6s-20.7,9.3-20.7,20.7h-2.5c-1.4,0-2.4,1.1-2.5,2.4v6.5c0,1.4,1.1,2.5,2.5,2.5l0,0h5V27.8h-0.1
	c0.5-10.1,9.1-17.8,19.2-17.2c9.3,0.5,16.8,8,17.3,17.3L58.1,37.2L58.1,37.2z"/>
<path class="st0" d="M50.9,58.9c-7.2,4-15.9,4-23,0L27.8,59l-1.1,0.9l-1,0.9l-1,1.1L23.7,63l-1,1.3l-0.8,1.3L20.9,67L20,68.4
	L19.2,70l-0.8,1.6l-0.8,1.6l-0.8,2L16,77l-0.5,1.9L15,80.8l-0.5,2l-0.4,2.1C13,91.7,6.6,91.2,8,83.7c0.4-1.8,0.8-3.6,1.2-5.4
	c0.5-1.8,1.1-3.6,1.7-5.3c0.7-1.8,1.4-3.4,2.3-5.2c0.8-1.6,1.8-3.3,2.8-4.7c1-1.5,2.2-3,3.4-4.3c1.3-1.3,2.5-2.5,4-3.7
	s3-2.2,4.6-3.1l0.8,0.6l1.1,0.8l1.1,0.6l1.2,0.5l1.1,0.5l1.2,0.4l1.2,0.4l1.2,0.3l1.2,0.1h2.4l1.2-0.1l1.2-0.3l1.2-0.4l1.2-0.4
	l1.1-0.5l1.2-0.5l1.1-0.6l1.1-0.8l0.8-0.6c1.6,0.9,3.1,1.9,4.5,3c1.4,1.2,2.7,2.4,4,3.7c1.2,1.4,2.4,2.7,3.4,4.3
	c1,1.5,2,3.1,2.7,4.7c0.9,1.7,1.6,3.4,2.4,5.2c0.7,1.7,1.3,3.5,1.8,5.3c0.5,1.8,0.8,3.6,1.2,5.5c1.4,7.5-5,8.1-6.1,1.2l-0.5-2.1
	l-0.5-1.9L62.9,79l-0.7-1.9l-0.6-1.8l-0.7-1.7L60,72l-0.8-1.6l-0.8-1.5l-0.8-1.4l-0.9-1.5l-0.9-1.3l-1-1.3l-1-1.1l-1-1.1l-1-1
	L50.9,58.9L50.9,58.9z M36.5,81.8h6.1l5.4-7.5c1-1.4,2.9-1.6,4.3-0.8l0,0c0.5,0.4,0.8,0.8,1,1.3l6.1,8.5c0.9,1.4,0.6,3.4-0.8,4.3
	l0,0c-1.3,1-3.2,0.7-4.2-0.5l-0.1-0.1l-4.1-5.6c-1.2,1.9-2.4,3.7-3.7,5.4c-0.5,0.7-1.4,1.1-2.4,1.1h-9.1c-2.6,0-5-4.8-6.3-6.7
	l-4.2,5.7c-1,1.4-2.9,1.6-4.3,0.7l0,0c-1.4-1-1.6-2.9-0.7-4.3l6.2-8.6l0.5-0.5c0.2-0.2,0.4-0.5,0.6-0.6l0,0c1.4-0.9,3.4-0.6,4.3,0.8
	L36.5,81.8z"/>
</svg>
