<?xml version="1.0" encoding="UTF-8"?>
<!DOCTYPE svg PUBLIC "-//W3C//DTD SVG 1.1//EN" "http://www.w3.org/Graphics/SVG/1.1/DTD/svg11.dtd">
<!-- Creator: CorelDRAW X7 -->
<svg xmlns="http://www.w3.org/2000/svg" xml:space="preserve" width="100%" height="100%" version="1.1" style="shape-rendering:geometricPrecision; text-rendering:geometricPrecision; image-rendering:optimizeQuality; fill-rule:evenodd; clip-rule:evenodd"
viewBox="0 0 2540 847"
 xmlns:xlink="http://www.w3.org/1999/xlink">
 <defs>
  <style type="text/css">
   <![CDATA[
    .fil1 {fill:#FBCC01}
    .fil0 {fill:#FDFEFE}
    .fil4 {fill:#D90044;fill-rule:nonzero}
    .fil2 {fill:#FBCC01;fill-rule:nonzero}
    .fil3 {fill:#FBCC01;fill-rule:nonzero}
   ]]>
  </style>
 </defs>
 <g id="Слой_x0020_1">
  <metadata id="CorelCorpID_0Corel-Layer"/>
  <path class="fil0" d="M1258 133c101,-16 181,57 194,140 5,27 3,56 -5,81 -6,18 -19,43 -28,55 -4,7 -16,16 -23,22 -10,10 -8,11 -23,18 -63,28 -67,32 -140,17 -23,-4 -39,-18 -57,-30 -98,-65 -91,-276 82,-303zm18 -94c-49,17 -16,40 -99,31 -54,-5 -34,38 -67,67 -37,31 -65,2 -57,72 8,63 -42,65 -33,100 3,13 21,29 28,41 12,22 5,36 3,60 -5,49 49,36 70,63 26,35 -5,67 74,58 55,-6 62,44 97,34 36,-11 13,-39 97,-31 26,2 34,-6 42,-26 6,-13 16,-38 25,-44 36,-26 61,3 57,-70 -4,-71 44,-63 33,-101 -4,-14 -21,-27 -28,-40 -12,-22 -4,-38 -2,-60 4,-49 -43,-31 -69,-65 -31,-40 0,-64 -75,-56 -56,7 -66,-44 -96,-33z"/>
  <path class="fil1" d="M1299 581c29,-14 32,-37 74,-33 42,5 53,6 72,-26 2,2 1,-1 5,6 15,24 91,202 92,207l-94 -11c-8,21 -37,53 -48,76 -15,-16 -40,-84 -52,-110 -14,-29 -42,-81 -49,-109zm-133 219l-52 -76 -90 11 96 -213c24,33 27,31 73,26 43,-4 44,21 75,33 -7,21 -93,210 -102,219zm110 -761c30,-11 40,40 96,33 75,-8 44,16 75,56 26,34 73,16 69,65 -2,22 -10,38 2,60 7,13 24,26 28,40 11,38 -37,30 -33,101 4,73 -21,44 -57,70 -9,6 -19,31 -25,44 -8,20 -16,28 -42,26 -84,-8 -61,20 -97,31 -35,10 -42,-40 -97,-34 -79,9 -48,-23 -74,-58 -21,-27 -75,-14 -70,-63 2,-24 9,-38 -3,-60 -7,-12 -25,-28 -28,-41 -9,-35 41,-37 33,-100 -8,-70 20,-41 57,-72 33,-29 13,-72 67,-67 83,9 50,-14 99,-31zm-276 714l106 -11c36,38 42,82 70,85l106 -233 109 233c16,-2 15,-4 23,-17l46 -68c29,2 83,13 106,10 -1,-37 -109,-227 -110,-261 12,-9 21,-17 39,-25 61,-25 30,-67 34,-94 4,-27 51,-49 31,-90 -7,-16 -21,-25 -28,-40 -16,-36 26,-74 -27,-100 -71,-34 -29,-12 -65,-67 -29,-44 -66,-2 -103,-26 -13,-8 -22,-21 -41,-27 -43,-13 -51,37 -100,34 -40,-4 -58,-15 -81,42 -10,25 -9,24 -32,35 -53,23 -51,22 -46,85 4,43 -43,49 -35,91 3,20 16,30 26,42 15,21 9,30 6,54 -6,62 39,59 61,71 32,17 2,53 -13,86 -14,33 -81,167 -82,191z"/>
  <path class="fil0" d="M1299 581c7,28 35,80 49,109 12,26 37,94 52,110 11,-23 40,-55 48,-76l94 11c-1,-5 -77,-183 -92,-207 -4,-7 -3,-4 -5,-6 -19,32 -30,31 -72,26 -42,-4 -45,19 -74,33z"/>
  <path class="fil0" d="M1166 800c9,-9 95,-198 102,-219 -31,-12 -32,-37 -75,-33 -46,5 -49,7 -73,-26l-96 213 90 -11 52 76z"/>
  <path class="fil2" d="M1279 480l0 0c-97,0 -176,-79 -176,-176 0,-97 79,-176 176,-176 47,0 91,18 125,51 33,34 51,78 51,125 0,47 -18,91 -51,124 -34,33 -78,52 -125,52zm0 -338c-89,0 -161,73 -161,162 0,89 72,161 161,161l0 0c43,0 84,-17 114,-47 31,-31 47,-71 47,-114 0,-43 -16,-84 -47,-114 -30,-31 -71,-48 -114,-48z"/>
  <path class="fil3" d="M1279 446l0 0c-38,0 -74,-15 -101,-42 -27,-26 -41,-62 -41,-100 0,-79 63,-143 142,-143l0 0c38,0 74,15 101,42 27,27 41,63 41,101 0,38 -14,74 -41,100 -27,27 -63,42 -101,42zm0 -270l0 0c-71,0 -128,57 -128,128 0,34 13,66 38,90 24,24 56,38 90,38l0 7 0 -7c34,0 66,-14 90,-38 24,-24 38,-56 38,-90 0,-34 -14,-66 -38,-91 -24,-24 -56,-37 -90,-37z"/>
  <path class="fil0" d="M1258 133c101,-16 181,57 194,140 5,27 3,56 -5,81 -6,18 -19,43 -28,55 -4,7 -16,16 -23,22 -10,10 -8,11 -23,18 -63,28 -67,32 -140,17 -23,-4 -39,-18 -57,-30 -98,-65 -91,-276 82,-303zm18 -94c-49,17 -16,40 -99,31 -54,-5 -34,38 -67,67 -37,31 -65,2 -57,72 8,63 -42,65 -33,100 3,13 21,29 28,41 12,22 5,36 3,60 -5,49 49,36 70,63 26,35 -5,67 74,58 55,-6 62,44 97,34 36,-11 13,-39 97,-31 26,2 34,-6 42,-26 6,-13 16,-38 25,-44 36,-26 60,3 57,-70 -4,-71 44,-63 33,-101 -4,-14 -21,-27 -28,-40 -12,-22 -4,-38 -2,-60 4,-49 -43,-31 -69,-65 -31,-40 0,-64 -75,-56 -56,7 -66,-44 -96,-33z"/>
  <path class="fil1" d="M1299 585c31,-14 34,-38 77,-33 42,5 55,6 74,-27 2,1 0,-1 5,6 15,25 94,208 95,213l-97 -11c-8,22 -38,54 -49,78 -16,-16 -42,-86 -54,-113 -14,-30 -43,-84 -51,-113zm-136 226l-54 -78 -92 11 98 -219c25,34 28,32 75,27 45,-5 46,21 77,33 -6,22 -95,217 -104,226zm113 -784c31,-11 41,41 99,35 77,-8 45,16 77,57 26,35 75,16 70,67 -2,22 -9,39 3,62 7,14 25,27 29,41 11,40 -39,31 -35,104 4,75 -21,45 -58,72 -9,7 -20,32 -25,45 -9,21 -17,29 -44,27 -86,-8 -62,21 -100,32 -36,11 -43,-41 -100,-35 -81,10 -49,-24 -76,-59 -21,-29 -77,-15 -72,-65 2,-25 9,-40 -3,-62 -7,-12 -26,-29 -29,-42 -9,-37 43,-38 35,-103 -9,-73 20,-42 58,-74 34,-30 14,-75 69,-69 85,8 52,-15 102,-33zm-284 735l109 -11c37,39 43,84 72,88l109 -240 112 240c16,-2 15,-4 24,-18l47 -70c30,2 86,14 109,11 -1,-39 -112,-234 -113,-269 12,-9 21,-18 40,-26 63,-26 31,-69 35,-97 5,-28 52,-50 32,-92 -7,-17 -22,-26 -28,-41 -17,-37 26,-77 -29,-103 -73,-36 -29,-13 -66,-70 -30,-45 -69,-1 -106,-25 -14,-9 -23,-23 -42,-29 -45,-14 -53,39 -103,35 -42,-3 -60,-16 -84,43 -10,26 -9,25 -33,36 -54,24 -52,23 -47,87 4,46 -44,51 -36,95 3,20 17,30 26,43 16,21 10,30 7,56 -7,63 40,61 63,72 32,18 2,55 -13,89 -15,34 -84,172 -85,196z"/>
  <path class="fil0" d="M1299 581c7,28 35,80 49,109 12,26 37,94 52,110 11,-23 40,-55 48,-76l94 11c-1,-5 -77,-183 -92,-207 -4,-7 -3,-4 -5,-6 -19,32 -30,31 -72,26 -42,-4 -45,19 -74,33z"/>
  <path class="fil0" d="M1166 800c9,-9 95,-198 102,-219 -31,-12 -32,-37 -75,-33 -46,5 -49,7 -73,-26l-96 213 90 -11 52 76z"/>
  <path class="fil2" d="M1279 480l0 0c-97,0 -176,-79 -176,-176 0,-97 79,-176 176,-176 47,0 91,18 125,51 33,34 51,78 51,125 0,47 -18,91 -51,124 -34,33 -78,52 -125,52zm0 -338c-89,0 -161,73 -161,162 0,89 72,161 161,161l0 0c43,0 84,-17 114,-47 31,-31 47,-71 47,-114 0,-43 -16,-84 -47,-114 -30,-31 -71,-48 -114,-48z"/>
  <path class="fil3" d="M1279 446l0 0c-38,0 -74,-15 -101,-42 -27,-26 -41,-62 -41,-100 0,-79 63,-143 142,-143l0 0c38,0 74,15 101,42 27,27 41,63 41,101 0,38 -14,74 -41,100 -27,27 -63,42 -101,42zm0 -270l0 0c-71,0 -128,57 -128,128 0,34 13,66 38,90 24,24 56,38 90,38l0 7 0 -7c34,0 66,-14 90,-38 24,-24 38,-56 38,-90 0,-34 -14,-66 -38,-91 -24,-24 -56,-37 -90,-37z"/>
  <path class="fil4" d="M1281 216c15,0 28,3 37,11 9,7 13,17 13,29 0,9 -2,16 -7,23 -6,7 -14,13 -25,19 14,7 23,13 29,21 6,7 9,15 9,25 0,14 -5,25 -15,33 -10,9 -23,13 -40,13 -18,0 -32,-4 -42,-12 -10,-8 -15,-19 -15,-34 0,-19 12,-34 36,-45 -11,-6 -18,-12 -23,-19 -5,-7 -7,-15 -7,-24 0,-12 4,-22 14,-29 9,-8 21,-11 36,-11zm-37 129c0,9 4,16 10,22 7,5 16,7 27,7 12,0 21,-2 27,-8 7,-5 10,-13 10,-22 0,-8 -3,-14 -9,-20 -6,-6 -17,-12 -32,-17 -11,5 -20,10 -25,16 -5,6 -8,14 -8,22zm37 -114c-10,0 -17,3 -23,7 -5,5 -8,11 -8,19 0,7 2,13 7,18 4,5 13,10 25,16 11,-5 19,-10 23,-15 5,-6 7,-12 7,-19 0,-8 -2,-14 -8,-19 -6,-4 -13,-7 -23,-7z"/>
 </g>
</svg>
