<?xml version="1.0" encoding="utf-8"?>
<!-- Generator: Adobe Illustrator 19.2.1, SVG Export Plug-In . SVG Version: 6.00 Build 0)  -->
<svg version="1.1" id="Слой_1" xmlns="http://www.w3.org/2000/svg" xmlns:xlink="http://www.w3.org/1999/xlink" x="0px" y="0px"
	 viewBox="0 0 78.4 97" style="enable-background:new 0 0 78.4 97;" xml:space="preserve">
<style type="text/css">
	.st0{fill:#CC0A3B;}
	.st1{fill:#FFFFFF;}
	.st2{fill:#FBCC01;}
</style>
<title>chelovechek</title>
<path class="st0" d="M53.2,49.4h13.3c2.7,0,4.9,2.2,4.9,4.9v6.3c0,2.7-2.2,4.9-4.9,4.9H53.2c-2.7,0-4.9-2.2-4.9-4.9c0,0,0,0,0,0
	v-6.4C48.2,51.6,50.4,49.4,53.2,49.4C53.1,49.4,53.1,49.4,53.2,49.4z"/>
<circle class="st1" cx="54.2" cy="57.5" r="3.4"/>
<path class="st2" d="M36.6,10.6c4.2,0,7.6,3.4,7.6,7.6s-3.4,7.6-7.6,7.6s-7.6-3.4-7.6-7.6C29,14,32.4,10.6,36.6,10.6z"/>
<path class="st1" d="M34.1,22.8v-1.3H32v-1h2.1V19H32v-1h2.1v-4.3h3.5c0.5,0,1,0,1.4,0.1c0.4,0.1,0.8,0.2,1.1,0.4
	c0.3,0.2,0.6,0.5,0.7,0.9c0.2,0.4,0.3,0.8,0.3,1.3c0,0.7-0.3,1.5-0.7,2c-0.4,0.5-1.4,0.8-2.7,0.8h-2.5v1.4h2.2v1h-2.2v1.2H34.1z
	 M35.3,18h2.4c0.6,0.1,1.2-0.1,1.6-0.4c0.4-0.3,0.6-0.8,0.5-1.3c0-0.3-0.1-0.7-0.3-1c-0.2-0.3-0.4-0.5-0.7-0.5
	c-0.4-0.1-0.7-0.1-1.1-0.1h-2.4V18z"/>
<path class="st2" d="M49.2,22.6c4.6,0,8.4,3.6,8.4,8.2c0,4.6-3.6,8.4-8.2,8.4c-4.6,0-8.4-3.6-8.4-8.2c0,0,0,0,0-0.1
	C41,26.4,44.6,22.7,49.2,22.6z"/>
<path class="st1" d="M46.6,35.9v-1.4h-2.3v-1.1h2.3v-1.6h-2.3v-1.1h2.3v-4.8h3.7c0.7,0,1.2,0.1,1.6,0.1c0.4,0.1,0.9,0.2,1.3,0.4
	c0.3,0.2,0.6,0.6,0.7,1c0.2,0.4,0.3,0.9,0.3,1.3c0,0.8-0.3,1.6-0.8,2.2c-0.5,0.6-1.5,0.9-3,0.9h-2.5v1.5h2.5v1.1h-2.4v1.4L46.6,35.9
	C46.6,35.9,46.6,35.9,46.6,35.9z M47.9,30.7h2.6c0.6,0.1,1.3-0.1,1.8-0.4c0.3-0.4,0.5-0.8,0.5-1.3c0-0.4-0.1-0.7-0.3-1
	c-0.2-0.3-0.5-0.5-0.9-0.6c-0.4-0.1-0.8-0.1-1.3-0.1h-2.5L47.9,30.7C47.8,30.7,47.9,30.7,47.9,30.7z"/>
<path class="st2" d="M28.2,29.3c5.2,0,9.4,4.2,9.4,9.4c0,0.6-0.1,1.2-0.2,1.8H19c-0.1-0.6-0.2-1.2-0.2-1.8
	C18.8,33.5,23,29.3,28.2,29.3z"/>
<path class="st1" d="M25.1,40.6v-0.8h-2.6v-1.3h2.6V33h4.3c0.7,0,1.3,0.1,1.7,0.1c0.5,0.1,1,0.2,1.4,0.5c0.4,0.3,0.7,0.7,0.9,1.1
	c0.2,0.5,0.3,1,0.3,1.5c0,0.9-0.3,1.8-0.9,2.5c-0.7,0.7-1.7,1-3.4,1h-3v0.7L25.1,40.6C25.1,40.5,25.1,40.6,25.1,40.6z M26.6,38.4h3
	c0.7,0.1,1.5-0.1,2.1-0.5c0.4-0.4,0.6-1,0.6-1.6c0-0.4-0.1-0.9-0.4-1.2c-0.2-0.3-0.5-0.6-0.9-0.7c-0.5-0.1-0.9-0.1-1.4-0.1h-3
	C26.6,34.4,26.6,38.4,26.6,38.4z"/>
<path class="st0" d="M19.2,37.4h41.4c4.9,0,8.8,4,8.8,8.8v22.4c0,4.9-4,8.8-8.8,8.8H19.2c-4.9,0-8.8-3.9-8.8-8.8c0,0,0,0,0-0.1V46.3
	C10.3,41.4,14.3,37.5,19.2,37.4C19.2,37.4,19.2,37.4,19.2,37.4z M19.2,42.3h41.4c2.2,0,4,1.8,4,4v22.4c0,2.2-1.8,4-4,4H19.2
	c-2.2,0-4-1.7-4-3.9c0,0,0,0,0,0V46.3C15.2,44.1,17,42.3,19.2,42.3C19.2,42.3,19.2,42.3,19.2,42.3z"/>
</svg>
