<?xml version="1.0" encoding="UTF-8"?>
<!DOCTYPE svg PUBLIC "-//W3C//DTD SVG 1.0//EN" "http://www.w3.org/TR/2001/REC-SVG-20010904/DTD/svg10.dtd">
<!-- Creator: CorelDRAW X7 -->
<svg xmlns="http://www.w3.org/2000/svg" xml:space="preserve" width="300px" height="100px" version="1.0" style="shape-rendering:geometricPrecision; text-rendering:geometricPrecision; image-rendering:optimizeQuality; fill-rule:evenodd; clip-rule:evenodd"
viewBox="0 0 30000 10000"
 xmlns:xlink="http://www.w3.org/1999/xlink">
 <defs>
  <style type="text/css">
   <![CDATA[
    .fil1 {fill:#CC0A3B}
    .fil0 {fill:#FBCC01}
    .fil2 {fill:white}
    .fil4 {fill:#CC0A3B;fill-rule:nonzero}
    .fil3 {fill:white;fill-rule:nonzero}
   ]]>
  </style>
 </defs>
 <g id="Слой_x0020_1">
  <metadata id="CorelCorpID_0Corel-Layer"/>
  <g id="_632929952">
   <path class="fil0" d="M11567 6795c-51,0 -101,-29 -124,-79 -31,-69 -1,-150 67,-181l248 -115c69,-32 150,-2 182,67 31,68 1,150 -67,181l-249 114c-18,9 -38,13 -57,13zm6944 -73c-19,0 -39,-4 -57,-12l-248 -115c-69,-32 -98,-113 -67,-182 32,-68 113,-97 182,-66l248 114c68,32 98,113 66,181 -23,51 -72,80 -124,80l0 0zm-6199 -271c-52,0 -102,-29 -125,-79 -31,-69 -1,-150 67,-182l248 -114c68,-31 150,-2 182,67 31,69 1,149 -67,182l-249 114c-18,8 -37,12 -56,12l0 0zm5456 -72c-20,0 -39,-4 -58,-13l-248 -115c-68,-31 -98,-113 -66,-181 31,-68 112,-98 181,-67l248 115c68,32 98,113 66,181 -23,50 -72,80 -123,80zm-4712 -271c-52,0 -101,-30 -125,-79 -32,-69 -1,-150 67,-182l248 -114c68,-32 150,-2 181,66 32,70 2,150 -67,182l-247 115c-19,8 -38,12 -57,12zm3968 -73c-20,0 -39,-3 -58,-13l-248 -114c-68,-31 -98,-113 -67,-181 32,-68 113,-98 182,-67l247 115c69,31 99,112 68,181 -24,50 -73,79 -124,79l0 0zm-3225 -270c-51,0 -100,-30 -123,-80 -33,-68 -2,-149 66,-181l248 -115c68,-31 150,-1 181,67 32,69 2,150 -67,182l-247 114c-19,9 -38,13 -58,13zm2480 -73c-19,0 -38,-4 -56,-13l-249 -114c-68,-31 -98,-113 -67,-181 32,-69 113,-99 181,-67l249 114c68,32 98,113 67,182 -23,50 -73,79 -125,79zm-1736 -270c-51,0 -101,-30 -124,-80 -31,-69 -2,-150 67,-181l248 -115c69,-31 150,-1 181,67 32,68 2,150 -66,181l-248 114c-19,9 -39,14 -58,14l0 0zm992 -74c-19,0 -38,-4 -57,-12l-248 -115c-69,-31 -98,-112 -67,-181 32,-68 113,-98 181,-66l249 114c68,31 98,113 67,181 -23,50 -73,79 -125,79z"/>
   <path class="fil0" d="M15118 4063c-75,0 -137,-61 -137,-136l0 -274c0,-75 62,-136 137,-136 76,0 137,61 137,136l0 274c0,75 -61,136 -137,136zm0 -819c-75,0 -137,-61 -137,-136l0 -274c0,-76 62,-136 137,-136 76,0 137,60 137,136l0 274c0,75 -61,136 -137,136zm0 -820c-75,0 -137,-61 -137,-136l0 -273c0,-76 62,-136 137,-136 76,0 137,60 137,136l0 273c0,75 -61,136 -137,136zm0 -819c-75,0 -137,-61 -137,-136l0 -274c0,-75 62,-136 137,-136 76,0 137,61 137,136l0 274c0,75 -61,136 -137,136zm0 -819c-75,0 -137,-62 -137,-137l0 -136c0,-76 62,-137 137,-137 76,0 137,61 137,137l0 136c0,75 -61,137 -137,137z"/>
   <path class="fil1" d="M15118 8570c-21,0 -41,-5 -61,-14l-3550 -1775c-47,-24 -76,-71 -76,-123l0 -4370c0,-46 24,-90 62,-115 40,-25 89,-29 131,-9l3552 1639c48,22 79,71 79,124l0 4507c0,47 -25,91 -65,116 -22,14 -47,20 -72,20zm-3414 -1996l3277 1639 0 -4199 -3277 -1512 0 4072z"/>
   <path class="fil1" d="M15118 8570c-25,0 -49,-6 -72,-20 -40,-25 -65,-69 -65,-116l0 -4507c0,-53 32,-102 80,-124l3550 -1639c43,-20 93,-16 131,9 40,25 64,69 64,115l0 4370c0,52 -30,99 -76,123l-3550 1775c-20,9 -41,14 -62,14zm137 -4556l0 4199 3277 -1639 0 -4072 -3277 1512z"/>
   <ellipse class="fil2" cx="19694" cy="7605" rx="2552" ry="2428"/>
   <path class="fil3" d="M17484 8140l359 -49c42,203 111,351 209,440 98,89 219,135 363,135 169,0 312,-59 428,-176 115,-117 173,-261 173,-433 0,-165 -54,-300 -162,-408 -107,-106 -243,-160 -410,-160 -67,0 -152,14 -252,40l39 -314c24,4 44,4 58,4 154,0 290,-40 414,-119 122,-79 183,-202 183,-366 0,-132 -45,-240 -134,-326 -89,-87 -204,-130 -344,-130 -140,0 -256,45 -349,133 -93,88 -153,221 -179,397l-358 -65c43,-241 143,-427 298,-559 154,-133 349,-199 579,-199 159,0 306,34 440,102 134,69 236,162 307,280 71,117 107,242 107,375 0,125 -35,239 -101,342 -69,103 -169,186 -302,247 173,39 306,122 403,247 94,125 142,283 142,471 0,255 -93,471 -278,649 -186,177 -422,265 -705,265 -256,0 -468,-77 -638,-230 -169,-152 -266,-350 -289,-593l-1 0z"/>
   <path id="_1" class="fil3" d="M19892 8914l0 -2916 1006 0c226,0 400,13 519,41 167,39 309,109 427,209 155,130 269,296 345,498 77,203 115,434 115,694 0,221 -26,417 -77,589 -52,171 -119,312 -199,424 -82,113 -170,201 -266,265 -97,65 -212,113 -348,146 -136,34 -293,50 -469,50l-1053 0zm387 -342l623 0c191,0 342,-17 452,-54 109,-36 196,-86 261,-151 91,-91 162,-216 213,-371 51,-154 77,-341 77,-562 0,-305 -50,-541 -151,-704 -99,-165 -220,-275 -363,-331 -104,-40 -270,-60 -500,-60l-612 0 0 2233 0 0z"/>
   <path class="fil1" d="M15118 4063c-19,0 -39,-4 -57,-12l-3551 -1639c-48,-22 -78,-69 -79,-122 -1,-53 29,-100 76,-124l3550 -1776c39,-19 84,-19 123,0l3550 1776c47,24 77,71 76,124 -1,53 -32,100 -79,122l-3551 1639c-19,8 -38,12 -58,12zm-3235 -1780l3235 1493 3236 -1493 -3236 -1618 -3235 1618z"/>
   <path class="fil4" d="M19603 7829c0,229 -114,436 -344,619 -228,184 -558,287 -988,308l-50 -208c343,-23 610,-91 802,-206 193,-113 289,-266 289,-454 0,-176 -72,-299 -216,-371 -144,-71 -353,-108 -627,-108l34 -201c218,0 397,-33 537,-101 140,-65 210,-158 210,-274 0,-109 -43,-187 -131,-234 -89,-46 -226,-69 -411,-69 -139,0 -261,12 -365,36l21 -240c103,-30 267,-45 489,-45 206,0 365,43 476,131 111,87 167,192 167,313 0,248 -130,416 -391,503l0 18c143,27 262,92 357,197 94,103 141,232 141,386l0 0z"/>
   <path id="_1_0" class="fil4" d="M21568 7075c0,274 -88,514 -263,721 -175,205 -417,309 -724,309 -101,0 -268,-7 -503,-20 15,-299 23,-629 23,-990 0,-339 -8,-638 -23,-895l160 0c38,0 97,-1 176,-4 79,-2 131,-4 157,-4 340,0 592,83 754,251 161,167 243,378 243,632l0 0zm-252 65c0,-214 -68,-393 -205,-537 -136,-143 -347,-216 -633,-216 -41,0 -96,5 -167,15 9,225 12,456 12,693 0,260 6,525 16,793 77,15 152,23 223,23 255,0 444,-75 568,-227 124,-150 186,-332 186,-544z"/>
   <path class="fil4" d="M15815 9604l-118 0c7,-88 9,-188 9,-302 0,-68 0,-149 -1,-241l-289 0c-1,73 -2,154 -2,241 0,105 4,207 10,302l-117 0c7,-88 10,-188 10,-302 0,-127 -8,-234 -24,-320l130 -6 299 0 91 -12c-5,92 -8,205 -8,338 0,105 3,207 10,302z"/>
   <path id="_1_1" class="fil4" d="M16590 9264c0,96 -28,179 -83,250 -54,72 -130,108 -226,108 -81,0 -135,-14 -160,-43l-7 0c0,121 2,231 4,327l-124 0c10,-117 15,-262 15,-434 0,-213 -11,-376 -33,-493l117 -17 9 66 7 0c43,-49 112,-75 207,-75 84,0 151,30 201,92 48,62 73,134 73,219l0 0zm-118 16c0,-65 -17,-120 -52,-167 -34,-46 -82,-70 -145,-70 -79,0 -136,24 -170,72 7,148 11,275 11,381 35,30 82,46 139,46 73,0 127,-27 163,-77 36,-52 54,-113 54,-185l0 0z"/>
   <path id="_2" class="fil4" d="M17345 9271c0,113 -32,201 -97,264 -65,63 -140,95 -229,95 -81,0 -152,-28 -210,-84 -60,-56 -89,-135 -89,-237 0,-113 33,-202 98,-266 65,-64 141,-96 229,-96 82,0 152,28 210,85 59,57 88,136 88,239l0 0zm-114 23c0,-68 -17,-129 -52,-183 -34,-53 -84,-81 -147,-81 -64,0 -113,26 -147,76 -34,51 -51,110 -51,177 0,69 18,130 52,184 35,53 84,80 148,80 64,0 112,-26 146,-77 34,-51 51,-110 51,-176l0 0z"/>
   <path id="_3" class="fil4" d="M17913 8976l-4 102c-77,-7 -183,-11 -320,-11 3,89 3,167 3,235 0,105 4,207 10,302l-117 0c6,-88 9,-188 9,-302 0,-127 -3,-236 -9,-326l428 0 0 0z"/>
   <path id="_4" class="fil4" d="M18613 9264c0,96 -27,179 -81,250 -56,72 -131,108 -228,108 -81,0 -134,-14 -159,-43l-7 0c0,121 1,231 3,327l-124 0c11,-117 16,-262 16,-434 0,-213 -11,-376 -33,-493l116 -17 10 66 6 0c43,-49 112,-75 208,-75 84,0 151,30 200,92 48,62 73,134 73,219l0 0zm-118 16c0,-65 -17,-120 -51,-167 -34,-46 -83,-70 -145,-70 -79,0 -136,24 -171,72 8,148 11,275 11,381 36,30 82,46 140,46 72,0 127,-27 162,-77 36,-52 54,-113 54,-185l0 0z"/>
   <path id="_5" class="fil4" d="M19262 9604l-104 4c-5,-22 -8,-42 -8,-61l-7 0c-54,49 -127,74 -221,74 -50,0 -94,-15 -131,-45 -36,-29 -54,-72 -54,-127 0,-68 28,-122 85,-164 58,-41 164,-63 320,-64 1,-11 1,-23 1,-38 0,-54 -14,-89 -43,-107 -28,-18 -72,-28 -131,-28 -69,0 -137,9 -204,26l11 -91c66,-19 142,-28 228,-28 78,0 139,15 182,48 42,32 64,87 64,166 0,20 -1,58 -3,112 -3,55 -3,91 -3,109 0,80 6,152 18,214l0 0zm-117 -128c-3,-67 -3,-127 -3,-181 -84,0 -146,6 -190,19 -71,22 -108,64 -108,126 0,60 42,90 127,90 73,0 131,-18 174,-54l0 0z"/>
   <path id="_6" class="fil4" d="M20178 9604l-111 0c0,-83 -1,-186 -2,-309 -1,-122 -1,-196 -1,-222l-9 0c-11,33 -37,96 -75,188 -97,202 -144,316 -144,343l-90 0c0,-39 -40,-151 -117,-336 -19,-43 -43,-108 -72,-195l-8 0c0,28 -3,113 -9,254 -7,141 -10,234 -10,277l-100 0c0,-13 9,-106 24,-281 17,-175 25,-290 25,-347l161 0c0,54 28,147 84,281 56,134 84,210 84,228l8 0c0,-18 29,-93 90,-227 61,-132 92,-226 92,-282l157 0c0,57 4,170 11,342 9,172 12,267 12,286l0 0z"/>
   <path id="_7" class="fil4" d="M21102 9604l-112 0c0,-83 0,-186 -1,-309 -1,-122 -1,-196 -1,-222l-9 0c-12,33 -36,96 -76,188 -95,202 -143,316 -143,343l-91 0c0,-39 -39,-151 -116,-336 -19,-43 -43,-108 -72,-195l-8 0c0,28 -3,113 -9,254 -7,141 -10,234 -10,277l-100 0c0,-13 8,-106 25,-281 15,-175 24,-290 24,-347l161 0c0,54 28,147 84,281 56,134 84,210 84,228l7 0c0,-18 31,-93 92,-227 60,-132 90,-226 90,-282l158 0c0,57 4,170 12,342 7,172 11,267 11,286l0 0z"/>
   <path id="_8" class="fil4" d="M21773 9604l-103 4c-5,-22 -8,-42 -8,-61l-6 0c-55,49 -129,74 -222,74 -51,0 -95,-15 -131,-45 -37,-29 -55,-72 -55,-127 0,-68 29,-122 87,-164 56,-41 163,-63 318,-64 2,-11 3,-23 3,-38 0,-54 -15,-89 -44,-107 -29,-18 -72,-28 -131,-28 -69,0 -137,9 -204,26l11 -91c66,-19 142,-28 228,-28 79,0 139,15 181,48 43,32 65,87 65,166 0,20 -1,58 -4,112 -1,55 -2,91 -2,109 0,80 6,152 17,214l0 0zm-117 -128c-1,-67 -3,-127 -3,-181 -82,0 -146,6 -188,19 -73,22 -109,64 -109,126 0,60 42,90 127,90 72,0 131,-18 173,-54l0 0z"/>
   <path class="fil1" d="M13572 6600c-5,0 -9,-1 -13,-4l-754 -376c-9,-5 -15,-15 -15,-26l0 -926c0,-10 5,-20 13,-25 8,-6 19,-6 28,-2l752 348c11,5 18,14 18,26l0 956c0,10 -5,19 -14,24 -4,3 -10,4 -15,4l0 1zm-725 -424l695 348 0 -891 -695 -320 0 863z"/>
   <path class="fil1" d="M13572 6600c-6,0 -11,-2 -16,-5 -8,-5 -14,-14 -14,-24l0 -956c0,-12 7,-21 18,-26l753 -348c8,-4 19,-4 27,2 8,5 14,15 14,25l0 926c0,11 -7,21 -16,26l-754 376c-4,3 -8,4 -12,4l0 0zm29 -967l0 891 694 -348 0 -863 -694 320z"/>
   <path class="fil1" d="M13572 5644c-4,0 -8,-1 -12,-3l-754 -348c-10,-4 -16,-14 -16,-25 0,-11 6,-22 15,-27l754 -376c8,-4 18,-4 25,0l754 376c9,5 16,16 16,27 -1,11 -8,21 -17,26l-754 347c-3,2 -7,3 -11,3zm-687 -378l687 317 686 -317 -686 -343 -687 343z"/>
   <path class="fil1" d="M13572 6600c-5,0 -9,-1 -13,-4l-754 -376c-9,-5 -15,-15 -15,-26l0 -926c0,-10 5,-20 13,-25 8,-6 19,-6 28,-2l752 348c11,5 18,14 18,26l0 956c0,10 -5,19 -14,24 -4,3 -10,4 -15,4l0 1zm-725 -424l695 348 0 -891 -695 -320 0 863z"/>
   <rect class="fil2" x="13542" y="5386" width="724" height="617"/>
   <path class="fil1" d="M13572 6600c-6,0 -11,-2 -16,-5 -8,-5 -14,-14 -14,-24l0 -956c0,-12 7,-21 18,-26l753 -348c8,-4 19,-4 27,2 8,5 14,15 14,25l0 926c0,11 -7,21 -16,26l-754 376c-4,3 -8,4 -12,4l0 0zm29 -967l0 891 694 -348 0 -863 -694 320z"/>
   <path class="fil1" d="M13572 5644c-4,0 -8,-1 -12,-3l-754 -348c-10,-4 -16,-14 -16,-25 0,-11 6,-22 15,-27l754 -376c8,-4 18,-4 25,0l754 376c9,5 16,16 16,27 -1,11 -8,21 -17,26l-754 347c-3,2 -7,3 -11,3zm-687 -378l687 317 686 -317 -686 -343 -687 343z"/>
   <rect class="fil2" x="12906" y="5631" width="573" height="617"/>
  </g>
 </g>
</svg>
