<svg width="17" height="26" viewBox="0 0 17 26" fill="none" xmlns="http://www.w3.org/2000/svg">
	<path fill-rule="evenodd" clip-rule="evenodd" d="M14.966 16.354C15.066 16.25 15.066 16.041 15.166 15.937C15.666 15.101 16.966 11.864 16.866 9.25295C16.866 7.26895 16.266 5.28295 14.966 3.71695C13.766 2.14995 11.966 1.21095 10.066 0.897951C6.26598 0.270952 2.26599 2.56895 1.26599 6.43295C0.765985 8.31295 0.765985 10.192 1.16599 12.072C2.26599 17.084 5.16599 21.262 8.26599 25.232C8.86598 25.962 8.96598 25.962 9.56598 25.126C12.266 21.576 13.466 19.278 14.966 16.354ZM9.36598 23.559C9.16599 23.873 8.96599 24.082 8.76599 24.396C5.56598 20.114 2.76599 15.936 1.86599 10.715C1.06599 6.53795 3.46599 2.88195 7.46599 1.94195C11.066 1.10695 14.866 3.50795 15.666 7.37195C15.966 8.93895 15.866 10.505 15.466 11.967C14.366 16.353 12.066 19.695 9.36598 23.559ZM12.066 11.027C12.266 10.61 12.266 10.088 12.266 9.56695C12.266 9.04395 12.166 8.62695 12.066 8.20895C11.866 7.79095 11.666 7.37295 11.266 7.05895C10.966 6.74595 10.566 6.43195 10.066 6.22295C9.66599 6.01395 9.16599 5.91095 8.66599 5.91095C8.16599 5.91095 7.76599 6.01395 7.26599 6.22295C6.86598 6.43295 6.46599 6.64195 6.16599 7.05995C5.86598 7.37295 5.56599 7.78995 5.46599 8.31195C5.36599 8.83395 5.26599 9.25195 5.26599 9.77495C5.26599 10.297 5.36599 10.715 5.46599 11.133C5.66599 11.55 5.86598 11.968 6.26599 12.281C6.56599 12.595 6.96599 12.907 7.46599 13.116C7.86599 13.325 8.36599 13.43 8.86599 13.43C9.36599 13.43 9.76598 13.325 10.266 13.116C10.666 12.907 11.066 12.595 11.366 12.281C11.666 11.864 11.966 11.445 12.066 11.027ZM6.76599 11.133C6.46598 10.715 6.36598 10.193 6.26599 9.67095C6.26599 9.35695 6.26599 9.04395 6.46599 8.62595C6.56599 8.31295 6.76599 7.99895 6.96599 7.78995C7.16599 7.57995 7.46598 7.37195 7.76599 7.26795C8.06599 7.16295 8.36598 7.05995 8.76599 7.05995C9.26599 7.05995 9.76599 7.16395 10.166 7.47695C10.566 7.79095 10.866 8.10395 11.066 8.62695C11.266 9.04395 11.366 9.56695 11.266 10.088C11.166 10.611 10.966 11.028 10.566 11.445C10.266 11.863 9.76598 12.073 9.26598 12.177C8.76598 12.281 8.26599 12.28 7.86599 12.072C7.46599 11.862 7.06599 11.55 6.76599 11.132V11.133Z" fill="#CC0A3B"/>
</svg>
