<svg width="25" height="16" viewBox="0 0 25 16" fill="none" xmlns="http://www.w3.org/2000/svg">
<path fill-rule="evenodd" clip-rule="evenodd" d="M24.0141 1.56401L23.9871 1.58701L24.0031 1.63901V14.359C23.9931 14.379 23.9781 14.397 23.9731 14.419C23.6831 15.486 23.0251 15.995 21.9401 15.995C19.1261 15.993 16.3121 15.995 13.4981 15.995C9.97406 15.993 6.44806 15.995 2.92406 15.992C2.51121 15.999 2.10742 15.8706 1.77442 15.6265C1.44142 15.3823 1.19754 15.0359 1.08006 14.64C1.05326 14.5464 1.02559 14.4531 0.997061 14.36V1.64001C1.00506 1.62401 1.01406 1.61001 1.02106 1.59401L0.987061 1.56401L1.07106 1.47701C1.28206 0.737014 1.73806 0.265014 2.40006 0.0900142L2.48206 0.00701416L2.55506 0.0690142C2.70506 0.0390142 2.84706 0.00201416 3.01506 0.00201416H22.0541C22.1941 0.00201416 22.3221 0.0360142 22.4541 0.0620142L22.5191 0.00601416L22.5931 0.0830142C23.2031 0.247014 23.6931 0.679014 23.9011 1.29301C23.9261 1.36501 23.9461 1.43901 23.9671 1.51301L24.0151 1.56301L24.0141 1.56401ZM3.00006 3.26401V14C2.47606 14 3.00006 14.526 3.00006 14H22.0001C22.0001 14.457 22.4601 14 22.0001 14V3.26301L12.8321 10.993L12.5001 10.647L12.1681 10.993L3.00006 3.26301V3.26401ZM4.84606 2.00001L12.5001 8.45401L20.1541 2.00001H4.84606Z" fill="#CC0A3B"/>
</svg>
