<svg width="25" height="25" viewBox="0 0 25 25" fill="none" xmlns="http://www.w3.org/2000/svg">
<path d="M18.8001 24.0319C17.6001 23.5319 16.0001 23.1319 14.7001 22.3319C9.40005 19.1319 4.90005 14.6319 1.60005 9.33194L1.30005 8.73194C-0.899947 3.93194 -0.299947 3.53194 3.30005 0.631941C4.50005 -0.368059 5.30005 -0.168059 6.20005 1.13194C7.00005 2.23194 7.70005 3.43194 8.50005 4.53194C9.40005 5.73194 9.50005 6.83194 8.60005 8.03194C7.70005 9.13194 7.90005 10.1319 8.90005 11.0319C10.5001 12.5319 12.0001 14.0319 13.6001 15.6319C14.1001 16.1319 14.7001 16.3319 15.4001 15.8319C17.0001 14.5319 18.6001 14.6319 20.2001 16.0319C21.1001 16.8319 22.2001 17.4319 23.3001 18.1319C24.1001 18.6319 24.3001 19.5319 23.8001 20.1319C22.7001 21.4319 21.6001 22.6319 20.4001 23.8319C20.1001 23.9319 19.6001 23.8319 18.8001 24.0319ZM19.0001 23.0319C19.5001 22.8319 20.0001 22.7319 20.4001 22.4319C21.1001 21.7319 21.8001 20.9319 22.5001 20.2319C23.1001 19.5319 22.9001 19.0319 22.2001 18.6319C21.4001 18.2319 20.7001 17.7319 20.0001 17.1319C18.5001 15.8319 17.1001 15.6319 15.5001 16.9319C14.8001 17.5319 14.1001 17.4319 13.5001 16.8319C11.7001 15.1319 9.80005 13.4319 8.10005 11.6319C6.40005 9.83194 6.50005 9.73194 7.60005 7.63194C7.90005 7.13194 8.10005 6.23194 7.90005 5.83194C7.10005 4.43194 6.20005 3.13194 5.30005 1.83194L4.70005 1.53194H4.10005C1.10005 3.23194 0.600053 4.73194 2.10005 7.83194C2.20005 8.13194 2.40005 8.53194 2.60005 8.83194C5.80005 14.0319 10.2001 18.3319 15.4001 21.5319C16.4001 22.1319 17.7001 22.4319 19.0001 23.0319Z" fill="#746C61"/>
</svg>
