<?xml version="1.0" encoding="UTF-8"?>
<!DOCTYPE svg PUBLIC "-//W3C//DTD SVG 1.1//EN" "http://www.w3.org/Graphics/SVG/1.1/DTD/svg11.dtd">
<!-- Creator: CorelDRAW X8 -->
<svg xmlns="http://www.w3.org/2000/svg" xml:space="preserve" width="21cm" height="29.7cm" version="1.1" style="shape-rendering:geometricPrecision; text-rendering:geometricPrecision; image-rendering:optimizeQuality; fill-rule:evenodd; clip-rule:evenodd"
viewBox="0 0 2100000 2970000"
 xmlns:xlink="http://www.w3.org/1999/xlink">
 <defs>
  <style type="text/css">
   <![CDATA[
    .fil0 {fill:red}
   ]]>
  </style>
 </defs>
 <g id="Слой_x0020_1">
  <metadata id="CorelCorpID_0Corel-Layer"/>
  <g id="_417796000">
   <path class="fil0" d="M1050000 1345000c135100,0 245000,-109935 245000,-245000 0,-135065 -109900,-245000 -245000,-245000 -135100,0 -245000,109935 -245000,245000 0,135065 109900,245000 245000,245000zm0 -420000c96495,0 175000,78505 175000,175000 0,96495 -78505,175000 -175000,175000 -96495,0 -175000,-78505 -175000,-175000 0,-96495 78505,-175000 175000,-175000z"/>
   <path class="fil0" d="M1043805 2351495l536935 -775495c201390,-268485 172270,-709800 -62335,-944370 -126770,-126805 -295330,-196630 -474600,-196630 -179270,0 -347830,69825 -474600,196595 -234605,234570 -263725,675885 -63140,943320l537740 776580zm-425110 -1670410c113575,-113540 264530,-176085 425110,-176085 160580,0 311535,62545 425110,176085 211750,211715 237825,610295 55055,853965l-480165 693455 -480935 -694505c-182000,-242620 -155890,-641200 55825,-852915z"/>
   <path class="fil0" d="M1474095 1940245c-19250,-2345 -36610,11445 -38850,30660 -2240,19215 11480,36610 30660,38850 368060,43330 564095,160090 564095,227745 0,94990 -372820,227500 -980000,227500 -607180,0 -980000,-132510 -980000,-227500 0,-67655 196035,-184415 564095,-227745 19180,-2240 32900,-19670 30660,-38850 -2275,-19215 -19635,-33075 -38850,-30660 -368515,43400 -625905,165620 -625905,297255 0,147840 360675,297500 1050000,297500 689325,0 1050000,-149660 1050000,-297500 0,-131635 -257390,-253855 -625905,-297255z"/>
  </g>
  <g id="_417795856">
  </g>
  <g id="_417799768">
  </g>
  <g id="_417799624">
  </g>
  <g id="_417799480">
  </g>
  <g id="_417799336">
  </g>
  <g id="_417799192">
  </g>
  <g id="_417799048">
  </g>
  <g id="_199872048">
  </g>
  <g id="_199871904">
  </g>
  <g id="_199871760">
  </g>
  <g id="_199871616">
  </g>
  <g id="_199871472">
  </g>
  <g id="_199871328">
  </g>
  <g id="_199871184">
  </g>
  <g id="_406630824">
  </g>
 </g>
</svg>
