<?xml version="1.0" encoding="utf-8"?>
<!-- Generator: Adobe Illustrator 19.2.1, SVG Export Plug-In . SVG Version: 6.00 Build 0)  -->
<svg version="1.1" id="Слой_1" xmlns="http://www.w3.org/2000/svg" xmlns:xlink="http://www.w3.org/1999/xlink" x="0px" y="0px"
	 viewBox="0 0 103.8 97" style="enable-background:new 0 0 103.8 97;" xml:space="preserve">
<style type="text/css">
	.st0{fill:#CC0A3B;stroke:#FFFFFF;stroke-miterlimit:10;}
	.st1{fill:#FBCC01;}
	.st2{fill:#CC0A3B;}
</style>
<title>chelovechek</title>
<g id="Ñëîé_1">
	<path class="st0" d="M87.4,29.8v42.7c0,1.6-1.2,2.8-2.7,2.8c0,0,0,0-0.1,0l0,0c-1.5,0-2.7-1.2-2.7-2.8l0,0v-3.6H28.2v3.6
		c0,1.6-1.2,2.8-2.7,2.8c0,0,0,0-0.1,0l0,0c-1.5,0-2.7-1.2-2.7-2.8l0,0V29.8c-1.2-0.6-1.9-1.8-1.9-3l0,0c0-1.9,1.6-3.4,3.4-3.4h61.7
		c1.9,0,3.4,1.6,3.4,3.4l0,0l0,0C89.4,28,88.7,29.2,87.4,29.8z M28.2,55.4h53.7V41.7H28.2V55.4z M82,57.2H28.2v9.7h53.7v-9.7H82z
		 M28.2,40h53.7v-9.8H28.2V40z"/>
	<path class="st1" d="M70.2,24.5l1.2,4.5l4.5,1.2l-4.5,1.2l-1.2,4.5L69,31.4l-4.5-1.2L69,29L70.2,24.5z"/>
	<path class="st1" d="M14.2,36.9l1.7,6.1l6.1,1.7l-6.1,1.7l-1.7,6.1l-1.7-6.1l-6.1-1.7l6.1-1.7L14.2,36.9z"/>
	<path class="st1" d="M38.6,59.3l1.6,5.7l5.6,1.5L40,67.9l-1.6,5.6L37,67.9l-5.7-1.6l5.7-1.5L38.6,59.3z"/>
	<path class="st1" d="M81.5,15.2l1,3.4l3.4,1l-3.4,1l-1,3.4l-0.8-3.4l-3.4-1l3.4-1L81.5,15.2z"/>
	<path class="st1" d="M89.9,46.5l1.5,5.3l5.3,1.5l-5.3,1.5L89.9,60l-1.5-5.3l-5.3-1.5l5.3-1.5L89.9,46.5z"/>
	<path class="st1" d="M92.9,29.7l1,3.4l3.4,1l-3.4,1l-1,3.4l-1-3.4l-3.4-1l3.4-1L92.9,29.7z"/>
	<path class="st1" d="M94.7,15.2l0.6,2.1l2.1,0.6l-2.1,0.6l-0.6,2.1l-0.6-2.1L92,17.8l2.1-0.6L94.7,15.2z"/>
	<path class="st1" d="M32.5,30.7l0.8,3.4l3.4,1l-3.4,0.8l-0.8,3.4l-1-3.4l-3.4-0.8l3.4-1L32.5,30.7z"/>
	<path class="st1" d="M80.5,50.8c-8.5-10.9-28,14.8-50.7-2.7c13,4.6,16.6-1,27.5-4C64.9,42.1,77.9,42.1,80.5,50.8z"/>
	<path class="st2" d="M54.3,34.1c0.8,0,1.6,0.6,1.6,1.6l0,0c0,0.8-0.7,1.6-1.6,1.6c-0.8,0-1.6-0.7-1.6-1.6
		C52.8,34.8,53.5,34.1,54.3,34.1L54.3,34.1z M54.3,59.9c0.8,0,1.6,0.6,1.6,1.6l0,0c0,0.8-0.7,1.6-1.6,1.6c-0.8,0-1.6-0.7-1.6-1.6
		C52.8,60.6,53.5,59.9,54.3,59.9L54.3,59.9z M54.3,46.9c0.8,0,1.6,0.6,1.6,1.6l0,0c0,0.8-0.7,1.6-1.6,1.6c-0.8,0-1.6-0.7-1.6-1.6
		C52.8,47.7,53.5,47.1,54.3,46.9L54.3,46.9z"/>
</g>
</svg>
