<svg width="17" height="13" viewBox="0 0 17 13" fill="none" xmlns="http://www.w3.org/2000/svg">
	<path fill-rule="evenodd" clip-rule="evenodd" d="M16.9 6.25151C16.9 8.21435 16.4453 9.72866 15.536 10.7905C14.6267 11.8537 13.3489 12.3846 11.7014 12.3846H8.49998V0.615353H11.9251C13.5137 0.615353 14.7391 1.0992 15.6043 2.06428C16.4684 3.03066 16.9 4.42597 16.9 6.25151ZM14.8 6.38358C14.8 5.31389 14.5448 4.52143 14.0335 4.00489C13.5242 3.48835 12.7493 3.23074 11.7088 3.23074H10.6V9.7692H11.4473C12.6034 9.7692 13.4518 9.49066 13.9904 8.93489C14.5301 8.37912 14.8 7.52912 14.8 6.38489V6.38358ZM6.14062 3.26212C6.14062 3.9722 5.97473 4.58158 5.64083 5.09028C5.30798 5.60028 4.82603 5.96905 4.19603 6.19789V6.24497C5.66498 6.48689 6.39998 7.3892 6.39998 8.95451C6.39998 10.0203 6.07553 10.8572 5.42768 11.4679C4.77878 12.0786 3.87788 12.3846 2.72498 12.3846C2.25143 12.3846 1.81148 12.3401 1.40933 12.2512C0.960663 12.1459 0.5219 11.9833 0.0999756 11.766L0.0999756 9.19774C0.485326 9.45274 0.876976 9.64235 1.27703 9.76528C1.67603 9.8882 2.04563 9.94835 2.38268 9.94835C2.90453 9.94835 3.28568 9.8542 3.52403 9.66328C3.76343 9.47235 3.88208 9.1742 3.88208 8.76751C3.88208 8.45366 3.82013 8.21174 3.69518 8.04305C3.57128 7.87305 3.36968 7.74489 3.09353 7.65859C2.81633 7.57228 2.45513 7.52912 2.00888 7.52912H1.46708V5.20535H2.02148C3.22898 5.20535 3.83378 4.80389 3.83378 3.99966C3.83378 3.69628 3.74453 3.47266 3.56603 3.3262C3.38753 3.17974 3.14708 3.10651 2.84678 3.10651C2.28398 3.10651 1.70228 3.35235 1.09958 3.84274L0.112576 1.77528C0.576676 1.35551 1.05338 1.05735 1.54163 0.880815C2.08769 0.694078 2.65226 0.604702 3.21848 0.615353C4.12988 0.615353 4.84598 0.850738 5.36258 1.3202C5.88128 1.79097 6.13958 2.43697 6.13958 3.26212H6.14062Z" fill="#CC0A3B"/>
</svg>
