<?xml version="1.0" encoding="utf-8"?>
<!-- Generator: Adobe Illustrator 19.2.1, SVG Export Plug-In . SVG Version: 6.00 Build 0)  -->
<svg version="1.1" id="Слой_1" xmlns="http://www.w3.org/2000/svg" xmlns:xlink="http://www.w3.org/1999/xlink" x="0px" y="0px"
	 viewBox="0 0 78.4 97" style="enable-background:new 0 0 78.4 97;" xml:space="preserve">
<style type="text/css">
	.st0{fill:#DA251D;}
	.st1{fill:#CC0A3B;}
	.st2{fill:#FBCC01;}
</style>
<title>chelovechek</title>
<g>
	<path class="st0" d="M59.6,49.4L59.6,49.4z"/>
	<path class="st0" d="M63.8,49.4c0,0-0.1,0.1-0.1,0.1C63.7,49.5,63.7,49.4,63.8,49.4z"/>
	<path class="st0" d="M63.8,49.4L63.8,49.4z"/>
	<path class="st1" d="M64,35.2v-2.1h2.7v2.1C66.8,35.2,64,35.2,64,35.2z M49.4,46v-8.8c0.2,0,0.4,0.1,0.6,0.1c0.5,0,0.9-0.1,1.4-0.2
		v7h8.8V24.3h-8.8v6.6c-0.4-0.1-0.9-0.2-1.4-0.2h-0.6v-8.4h23.3V46H49.4z M54.9,35.2v-2.1h2.7v2.1C57.7,35.2,54.9,35.2,54.9,35.2z
		 M62,44V24.3h8.8v19.8L62,44C62,44.1,62,44,62,44z"/>
	<path class="st1" d="M48.8,56.8h23.6v18.7H48.8V56.8z M59.2,63v-2.1h2.7V63C61.9,63,59.2,63,59.2,63z M59.2,71.1v-2.1h2.7v2.1
		C61.9,71.1,59.2,71.1,59.2,71.1z M70.5,66.7H50.6v7h19.8V66.7z M50.6,64.8h19.8v-6H50.6V64.8z"/>
	<path class="st1" d="M7.3,24.3h23.6v13.5H7.3V24.3z M23.8,34.4v-2.1h2.7v2.1H23.8z M9.2,26.2H29v9.7H9.2V26.2z"/>
	<path class="st1" d="M7.3,56.8h6.1V51c0.1-1.8,1.6-3.2,3.4-3.2l0,0c1.8,0,3.3,1.4,3.4,3.2v0.6h-1.4V51c0-1.1-0.9-1.9-2-1.8
		c0,0,0,0,0,0l0,0c-1.1-0.1-2,0.7-2.1,1.8c0,0,0,0,0,0v3.3h1.1v1.3h-1.1v1.2h16.2v2.3c-0.5-0.1-1-0.1-1.6-0.1h-0.4v-0.3H14.7v0.1
		h-1.4v-0.1H9.1v6h15.3c1.4,1.1,3.1,1.6,4.9,1.6c0.5,0,1,0,1.6-0.1v9.3H7.3V56.8z M17.7,63v-2.1h2.7V63C20.4,63,17.7,63,17.7,63z
		 M17.7,71.1v-2.1h2.7v2.1C20.4,71.1,17.7,71.1,17.7,71.1z M28.9,66.7H9.2v7H29L28.9,66.7L28.9,66.7z"/>
	<path class="st2" d="M75.7,18.7v59.6H44.9v-7.3c-0.1-0.4-0.2-0.8-0.4-1.2l-0.1-0.3l-0.1-0.3l-0.2-0.3l-0.1-0.2L44,68.5L44,68.3
		l-0.1-0.1L43.8,68L43.8,68h-0.4L43.2,68L43,68.1l-0.3,0.2l-0.4,0.2l-0.5,0.2l-0.5,0.1l-0.5,0.1h-1.1l-0.3-0.1l-0.3-0.1l-0.3-0.1
		l-0.3-0.1l-0.3-0.1l-0.3-0.1l-0.3-0.1L37.6,68l-0.3-0.2l-0.3-0.1l-0.2-0.3l-0.2-0.2L36.5,67l-0.1-0.3l-0.1-0.3l-0.1-0.2L36.1,66
		L36,65.7l-0.2-0.2v-0.3L35.7,65l-0.1-0.3v-0.3l0,0v-0.4l0.1-0.3l0.1-0.3l0.1-0.3l0.1-0.3l0.1-0.3l0.1-0.3l0.1-0.2l0.1-0.3l0.2-0.3
		l0.1-0.3l0.2-0.2l0.3-0.3l0.3-0.2l0.3-0.2l0.3-0.2l0.3-0.1l0.3-0.1l0.3-0.1l0.3-0.1l0.3-0.1l0.3-0.1l0.3-0.1l0.3-0.1h0.3l0.5,0.1
		l0.5,0.1l0.5,0.1l0.5,0.1l0.4,0.2l0.3,0.2l0.3,0.1l0.1,0.1h0.3l0.1-0.1l0.1-0.1l0.1-0.2l0.1-0.2l0.1-0.2l0.2-0.3l0.1-0.3l0.1-0.3
		l0.1-0.3l0.1-0.3l0.1-0.3l0.1-0.3l0.1-0.3l0.1-0.3V39.8l0,0v-0.1h0.1v-0.1l0,0c0.5-1.3,1.1-2.5,1.9-3.6l0,0l0.1-0.1l0,0
		c0.1-0.1,0.2-0.1,0.3-0.1c2.7-0.6,1.9,0.8,4.2,0.8h0.1c0.9,0,1.8-0.5,2.2-1.3c0.2-0.4,0.3-0.8,0.3-1.2V34c0-0.4-0.1-0.9-0.3-1.2
		c-0.4-0.8-1.3-1.3-2.2-1.3h-0.1c-2.3,0-1.4,1.4-4.2,0.8c-0.6-0.4-1.1-1-1.4-1.6c0-0.1,0-0.1-0.1-0.1s0-0.1-0.1-0.1v-0.1
		c0,0,0-0.1-0.1-0.1l0,0v-0.1l-0.1-0.1l0,0l-0.1-0.1v-0.1l0,0l-0.1-0.1l0,0c0-0.1-0.1-0.1-0.1-0.2v-0.1c0-0.1-0.1-0.1-0.1-0.2v-0.1
		l-0.1-0.1v-0.1l0,0l-0.1-0.1l-0.1-0.1l0,0c0-0.1,0-0.1-0.1-0.1v-0.1c0,0,0-0.1-0.1-0.1l0,0V29c-0.1,0-0.1,0-0.1-0.1l0,0v-0.1h-0.1
		v-0.1l0,0v-0.1c0,0-0.1-0.1-0.1-0.1l0,0c0-0.1,0-0.3-0.1-0.4v-9.5H75.7L75.7,18.7z M46.9,58L46.9,58c0,0-0.1,0.1-0.1,0.1l0,0v0.1
		l0,0v0.1l0,0 M46.8,58.1L46.8,58.1 M46.8,58.3L46.8,58.3c0,0.1-0.1,0.1-0.1,0.1l0,0v0.1l0,0v0.1l0,0v0.1l0,0v0.1l0,0v0.1l0,0
		l-0.1,0.1l0,0v0.1l0,0v0.1l0,0v-0.1l0,0v0.1l0,0c0,0-0.1,0.1-0.1,0.1v0.1l0,0v0.1l0,0l-0.1,0.1l0,0v0.1c-0.1,0-0.1,0-0.1,0.1l0,0
		v0.1h-0.1v0.1l0,0l0.1-0.1l0,0c0,0,0,0.1-0.1,0.1 M46.8,58.5L46.8,58.5 M46.4,59.7L46.4,59.7L46.4,59.7L46.4,59.7
		c-0.1,0.1-0.1,0.1-0.1,0.1l0,0c0,0.1,0,0.1-0.1,0.1V60l0,0c0,0,0,0.1-0.1,0.1l0,0c-0.3,0.8-0.7,1.5-1.3,2.1l0,0
		c-0.1,0.1-0.2,0.2-0.4,0.3c-2.7,0.5-1.9-0.9-4.2-0.9c-0.1,0-0.1,0-0.1,0.1c-0.9,0-1.8,0.5-2.2,1.3c-0.3,0.4-0.4,0.8-0.4,1.2v0.1
		c0,0.4,0.1,0.9,0.4,1.2c0.4,0.8,1.2,1.3,2.1,1.3h0.1c2.3,0,1.4-1.4,4.2-0.8c1,0.5,1.6,1.6,1.9,2.7c0.8,2.3,0.5,5.1,0.5,7.4h26.6
		V49.5h-6l-0.3,0.1L67,49.6l-0.3,0.1l-0.3,0.1l-0.3,0.1L66,50l-0.3,0.1l-0.2,0.1l-0.2,0.1l-0.1,0.1l-0.1,0.1l-0.1,0.1v0.1l0.1,0.1
		l0.1,0.2l0.2,0.3l0.2,0.4L66,52l0.1,0.5l0.1,0.5v0.7l0,0v0.1l0,0v0.3L66,54.6L66,54.9l-0.1,0.3l-0.1,0.3l-0.1,0.3L65.6,56l-0.1,0.3
		l-0.2,0.3l-0.2,0.2L64.9,57l-0.3,0.2l-0.2,0.2l-0.3,0.2l-0.3,0.1l-0.3,0.1l-0.2,0.1L63.2,58l-0.3,0.1l-0.3,0.1l-0.3,0.1l-0.3,0.1
		l-0.3,0.1h-0.5L61,58.3l-0.3-0.1l-0.3-0.1l-0.3-0.1L59.9,58l-0.3-0.1l-0.2-0.1l-0.3-0.1L59,57.6l-0.3-0.2l-0.2-0.2L58.3,57
		l-0.2-0.3l-0.2-0.3l-0.2-0.3l-0.1-0.3l-0.1-0.3l-0.1-0.3l-0.1-0.3l-0.1-0.3l-0.1-0.3v-0.3L57,53.9v-0.1l0,0v-0.1l0,0v-0.1l0.1-0.6
		l0.1-0.5l0.1-0.5l0.1-0.4l0.2-0.4l0.2-0.3l0.1,0.1l0.1-0.1v-0.3l-0.1-0.1l-0.1-0.1l-0.2-0.1l-0.2-0.1l-0.2-0.1l-0.3-0.1l-0.3-0.1
		L56.4,50l-0.2-0.3l-0.3-0.1l-0.3-0.1h-8.7v8.2c-0.1,0.1-0.1,0.2-0.1,0.3 M55.1,47.4h0.3c1.4,0.4,3.8,0.9,4.5,2.4
		c0.5,2.7-0.9,1.9-0.9,4.2v0.1c0,0.9,0.5,1.8,1.4,2.2c0.4,0.2,0.8,0.3,1.2,0.3h0.1c0.4,0,0.9-0.1,1.2-0.3c0.8-0.4,1.3-1.3,1.3-2.2
		V54c0-2.3-1.4-1.4-0.8-4.2c0.4-0.9,2.1-1.6,3.4-2.1c0.5-0.2,1-0.3,1.6-0.3h5.2V20.8H46.9v7.4l0.1,0.3l0.1,0.3l0.1,0.3l0.1,0.3
		l0.1,0.3l0.1,0.3l0.1,0.2l0.1,0.3l0.1,0.1l0.1,0.1l0.1,0.1H48l0.1-0.1l0.2-0.1l0.3-0.2l0.4-0.2l0.4-0.1l0.5-0.1l0.5-0.1l0.6-0.1
		h0.3l0.3,0.1l0.3,0.1l0.3,0.1l0.3,0.1l0.3,0.1l0.3,0.1l0.3,0.1l0.3,0.1l0.3,0.1l0.3,0.2l0.3,0.3l0.2,0.2l0.2,0.3l0.2,0.3l0.1,0.3
		l0.1,0.2l0.1,0.3l0.1,0.3l0.1,0.3l0.1,0.3l0.1,0.3l0.1,0.3l0.1,0.3v0.4l0,0v0.1l-0.1,0.3L55.7,35l0.3,0.3l-0.1,0.3l-0.1,0.3
		l-0.2,0.3l-0.1,0.3l-0.1,0.2l-0.2,0.2L55,37l-0.2,0.3l-0.2,0.2l-0.3,0.3l-0.3,0.2L54,38l-0.3,0.1l-0.3,0.1l-0.3,0.1l-0.3,0.1
		l-0.3,0.1l-0.3,0.1l-0.4,0.1h-1.1l-0.5-0.1l-0.5-0.1l-0.4-0.2L49,38.1l-0.3-0.2l-0.2-0.1l-0.1-0.1h-0.3L48,37.8l-0.1,0.1l-0.1,0.1
		l-0.1,0.2l-0.1,0.3l-0.3,0.3L47.4,39l-0.1,0.3l-0.1,0.3l-0.1,0.3l-0.1,0.3v7.4L55.1,47.4z M45.8,30.5
		C45.8,30.5,45.8,30.5,45.8,30.5 M45.7,30.3L45.7,30.3"/>
	<path class="st2" d="M2.8,78.2V18.7h30.7V26c0.1,0.4,0.2,0.8,0.4,1.2l0.1,0.3l0.1,0.3l0.1,0.3l0.1,0.3l0.1,0.2l0.1,0.2l0.1,0.2
		l0.1,0.1l0.1,0.1h0.3l0.1-0.1l0.3-0.1l0.3-0.2l0.4-0.2l0.5-0.1l0.5-0.1l0.6-0.1l0.5-0.1h0.3l0.3,0.1l0.3,0.1l0.3,0.1l0.3,0.1
		l0.3,0.1l0.3,0.1l0.3,0.1l0.3,0.2l0.3,0.1l0.3,0.2l0.3,0.2l0.2,0.3l0.2,0.3l0.1,0.3l0.2,0.3l0.1,0.2l0.1,0.3l0.1,0.3l0.1,0.3
		l0.1,0.3l0.1,0.3l0.1,0.3l0.1,0.3v0.4l0,0v0.3l-0.1,0.3l-0.1,0.3L42.3,34l-0.1,0.3l-0.1,0.3l0.1,0.3l-0.1,0.3l-0.1,0.2l-0.2,0.2
		l-0.1,0.3L41.6,36l-0.3,0.1l-0.2,0.2l-0.3,0.2l-0.3,0.2l-0.2,0.1l-0.3,0.1L39.9,37l-0.3,0.1l-0.3,0.1L39,37.2l-0.3,0.1h-1.1
		L37,37.2l-0.5-0.1L36.1,37l-0.5-0.2l-0.3-0.2l-0.3-0.1l-0.1-0.1h-0.1l-0.1,0.1l-0.1,0.1l-0.1,0.1l-0.1,0.1L34.4,37l-0.1,0.3
		l-0.1,0.2l-0.1,0.3l-0.1,0.3L34,38.2l-0.1,0.3l-0.1,0.3L33.8,39l-0.1,0.3l-0.1,0.3v17.7l0,0l-0.1,0.1l0,0c-0.5,1.3-1.1,2.5-1.9,3.6
		l0,0v0.1h-0.1c-0.1,0.1-0.2,0.1-0.3,0.2c-2.8,0.5-1.9-0.9-4.2-0.9H27c-0.9,0-1.8,0.5-2.2,1.4c-0.2,0.4-0.3,0.8-0.3,1.2V63
		c0,0.4,0.1,0.9,0.3,1.2c0.4,0.8,1.3,1.4,2.2,1.4h0.1c2.3,0,1.4-1.4,4.2-0.9c0.6,0.4,1.1,1,1.4,1.7v0.1l0.1,0.1h0.1
		c0,0.1,0,0.1,0.1,0.1l0,0v0.1c0,0,0,0.1,0.1,0.1v0.1H33v0.1c0,0,0.1,0,0.1,0.1l0,0c0,0.1,0.1,0.1,0.1,0.2l0,0
		c0,0.1,0.1,0.1,0.1,0.2v0.1h0.1v0.1l0,0l0.1,0.1c0,0.1,0,0.1,0.1,0.1l0,0c0,0.1,0,0.1,0.1,0.1v0.1l0.1,0.1l0,0v0.1l0,0
		c0,0,0,0.1,0.1,0.1V68l0,0v0.1c0.1,0,0.1,0,0.1,0.1l0,0v0.1l0,0l0.1,0.1l0,0c0.1,0.1,0.1,0.3,0.1,0.4v9.6L2.8,78.2L2.8,78.2
		L2.8,78.2z M31.5,38.8L31.5,38.8L31.5,38.8L31.5,38.8l0.1-0.1l0,0 M31.6,38.8L31.6,38.8 M31.6,38.7L31.6,38.7c0-0.1,0-0.1,0.1-0.2
		l0,0v-0.1l0,0v-0.1l0,0v-0.1l0,0v-0.1l0,0v-0.1l0,0v-0.1h0.1V38l0,0v-0.1l0,0v-0.1l0,0c0-0.1,0.1-0.1,0.1-0.2h0.1v-0.1l0,0v-0.1
		c0,0,0.1,0,0.1-0.1l0,0v-0.1l0,0l0.1-0.1l0,0v-0.1h0.1v-0.1c0,0,0.1,0,0.1-0.1l0,0 M31.6,38.4L31.6,38.4 M32,37.3L32,37.3L32,37.3
		l0.1-0.1c0,0,0.1,0,0.1-0.1l0,0V37l0,0c0,0,0.1,0,0.1-0.1l0,0c0-0.1,0-0.1,0.1-0.1v-0.1c0.3-0.8,0.7-1.5,1.3-2.1l0,0
		c0.1-0.1,0.2-0.2,0.4-0.3c2.7-0.6,1.9,0.8,4.2,0.8h0.1c0.9,0,1.8-0.5,2.2-1.3c0.2-0.4,0.3-0.8,0.3-1.2v-0.1c0-0.4-0.1-0.9-0.3-1.2
		c-0.4-0.8-1.3-1.4-2.2-1.3h-0.1c-2.3,0-1.4,1.4-4.2,0.8c-1-0.5-1.6-1.6-1.9-2.7c-0.8-2.3-0.5-5.1-0.5-7.4H4.8v26.6H11l0.3-0.1
		l0.3-0.1l0.3-0.1l0.3-0.1l0.3-0.1l0.2-0.1l0.3-0.1l0.2-0.1l0.1-0.1l0.1-0.1l0.1-0.1l0.1-0.1v-0.1L13,45.9l-0.1-0.3l-0.2-0.3
		L12.4,45l-0.2-0.5L12.2,44l-0.1-0.6v-0.6l0,0v-0.1l0,0v-0.1l0,0v-0.4l0.1-0.3l0.1-0.3l0.1-0.3l0.1-0.3l0.1-0.3l0.1-0.3l0.1-0.3
		l0.2-0.3l0.2-0.3l0.2-0.3l0.2-0.2l0.3-0.2l0.3-0.1l0.3-0.2l0.2-0.1l0.3-0.1l0.3-0.1l0.3-0.1l0.3-0.1l0.3-0.1l0.3-0.1l0.3-0.1h0.8
		l0.3,0.1l0.3,0.1l0.3,0.1l0.3,0.1l0.3,0.1l0.3,0.1l0.2,0.1l0.3,0.1l0.3,0.2l0.3,0.1l0.2,0.2l0.3,0.2l0.2,0.3l0.2,0.3l0.1,0.3
		l0.2,0.3l0.1,0.3l0.1,0.3l0.1,0.3l0.1,0.3l0.1,0.3l0.1,0.3l0.1,0.3v0.1l0,0v0.2l-0.1,0.5L21.4,44l-0.1,0.5L21.2,45L21,45.3
		l-0.2,0.3l-0.2,0.3l-0.1,0.1v0.3l0.1,0.1l0.1,0.1l0.2,0.1l0.2,0.1l0.2,0.1l0.3,0.1l0.3,0.1l0.3,0.1l0.3,0.1l0.3,0.1l0.3,0.1h8.8
		v-7.9c0.1-0.1,0.1-0.2,0.1-0.3 M23.4,49.5h-0.3c-1.4-0.4-3.8-0.9-4.5-2.4c-0.5-2.7,0.8-1.9,0.8-4.2v-0.1c0-0.9-0.5-1.8-1.3-2.2
		c-0.4-0.3-0.8-0.4-1.2-0.4h-0.1c-0.4,0-0.9,0.1-1.2,0.4c-0.8,0.4-1.3,1.3-1.3,2.2v0.1c0,2.3,1.4,1.4,0.8,4.2
		c-0.4,0.9-2.1,1.6-3.4,2.2c-0.5,0.2-1,0.3-1.6,0.3H4.9v26.6h26.6v-7.4l-0.1-0.3l-0.1-0.3L31.3,68l-0.1-0.3l-0.1-0.3L31,67.2L31,67
		L30.6,67l-0.1-0.2l-0.1-0.1v-0.1l-0.2-0.1h-0.1l-0.2,0.1l-0.2,0.1L29.4,67L29,67.2l-0.4,0.1l-0.5,0.1l-0.5,0.1h-1.2l-0.3-0.1
		l-0.3-0.1l-0.3-0.1l-0.3-0.1L25,67.1L24.7,67l-0.3-0.1l-0.3-0.2l-0.3-0.2l-0.2-0.2l-0.2-0.3l-0.1-0.2l-0.2-0.3l-0.1-0.3L23,65.1
		l-0.1-0.2l-0.2-0.2l-0.1-0.3l-0.1-0.3l-0.1-0.3l-0.1-0.3V63l0,0v-0.8l0.1-0.3l0.1-0.3l0.1-0.3l0.1-0.3l0.1-0.3l0.1-0.2l0.1-0.3
		l0.1-0.3l0.2-0.3l0.2-0.2l0.2-0.3l0.3-0.2l0.3-0.2l0.3-0.2l0.3-0.1l0.3-0.1l0.3-0.1l0.3-0.1l0.3-0.1l0.3-0.1h0.3l0.3-0.1h0.8
		l0.5,0.1l0.5,0.1l0.5,0.2l0.4,0.2l0.3,0.2l0.2,0.1l0.1,0.1h0.3l0.1-0.1l0.1-0.1l0.1-0.2l0.1-0.2l0.1-0.2l0.1-0.3l0.1-0.3l0.1-0.3
		l0.1-0.3l0.1-0.3l0.1-0.3v-7.2L23.4,49.5z M32.6,66.4L32.6,66.4 M32.7,66.7C32.7,66.7,32.7,66.7,32.7,66.7"/>
</g>
</svg>
