<svg width="22" height="22" viewBox="0 0 22 22" fill="none" xmlns="http://www.w3.org/2000/svg">
	<path fill-rule="evenodd" clip-rule="evenodd" d="M11 22C4.925 22 0 17.075 0 11C0 4.925 4.925 0 11 0C17.075 0 22 4.925 22 11C22 17.075 17.075 22 11 22ZM11 1C5.477 1 1 5.477 1 11C1 16.523 5.477 21 11 21C16.523 21 21 16.523 21 11C21 5.477 16.523 1 11 1ZM11.007 15.996C10.685 15.996 10.435 15.896 10.259 15.698C10.081 15.498 9.993 15.218 9.993 14.855C9.993 14.48 10.079 14.195 10.253 14.003C10.425 13.811 10.676 13.715 11.006 13.715C11.326 13.715 11.571 13.813 11.746 14.01C11.92 14.207 12.008 14.49 12.008 14.855C12.008 15.209 11.918 15.487 11.742 15.691C11.565 15.895 11.32 15.997 11.005 15.997L11.007 15.996ZM10.311 12.56L10.018 6.005H12.01L11.715 12.56H10.31H10.311Z" fill="#CC0A3B"/>
</svg>
