<svg width="21" height="22" viewBox="0 0 21 22" fill="none" xmlns="http://www.w3.org/2000/svg">
<path d="M19.1792 19.7443C17.9605 20.9943 16.3998 21.4487 14.8379 21.496L14.6083 21.4982C13.3843 21.5101 12.2368 21.1925 11.1052 20.665L11.105 20.6649C8.64489 19.5192 6.68152 17.7539 4.86148 15.738C3.27716 13.9818 1.93963 12.1077 1.11616 9.94074C0.297215 7.78249 0.251485 5.66903 1.24023 3.57622L1.24047 3.57572C1.82149 2.34238 2.88191 1.52306 4.08244 0.6723L4.08251 0.672401L4.09145 0.665765C4.247 0.550246 4.4438 0.49049 4.64565 0.501233C4.84744 0.511975 5.03509 0.592126 5.17513 0.722271L5.18135 0.728054L5.18777 0.733623C6.49435 1.86765 7.4225 3.24131 7.82719 4.87952L7.82752 4.88085C7.95687 5.39836 7.78389 5.88488 7.29436 6.27538L7.29378 6.27585C6.87219 6.61319 6.45095 6.94478 6.02811 7.27069C5.54211 7.64275 5.17627 8.05183 5.01223 8.56845C4.8473 9.08786 4.91307 9.63102 5.11047 10.214C5.49009 11.3449 6.17035 12.301 6.93564 13.1254C7.70154 13.9547 8.53949 14.7196 9.35921 15.4679C9.51887 15.6136 9.67784 15.7588 9.83545 15.9036C10.1205 16.1665 10.4783 16.3471 10.7548 16.4867C10.7752 16.497 10.7952 16.5071 10.8147 16.517L10.8163 16.5178C11.292 16.7571 11.7822 16.8569 12.2697 16.7925C12.7558 16.7283 13.1995 16.506 13.5929 16.1662C13.832 15.9621 14.0691 15.7176 14.2848 15.4953C14.3903 15.3865 14.4907 15.283 14.5837 15.1921C15.0061 14.7835 15.4414 14.563 15.8593 14.5075C16.2702 14.4529 16.7139 14.5508 17.1778 14.8693C18.2146 15.5894 19.1818 16.3971 20.0677 17.2827L20.069 17.284C20.4285 17.6406 20.5184 17.9368 20.497 18.1742C20.4741 18.4277 20.3134 18.7434 19.9079 19.1035L19.9076 19.1038C19.8493 19.1556 19.7764 19.2164 19.6969 19.2827C19.5298 19.422 19.3332 19.5861 19.1792 19.7443Z" stroke="#CC0A3B"/>
</svg>
